<svg width="81" height="28" viewBox="0 0 81 28" fill="none" xmlns="http://www.w3.org/2000/svg">
<path d="M22.3867 14.5195H18.3789L19.5039 12.9375L23.793 13.1484L25.7617 11.2148C28.1875 8.82422 30.7246 6.73828 33.373 4.95703C36.0332 3.17578 38.8047 1.69922 41.6875 0.527344C41.7461 0.503906 41.834 0.480469 41.9512 0.457031C42.0684 0.433594 42.1914 0.421875 42.3203 0.421875C42.4258 0.421875 42.5137 0.439453 42.584 0.474609C42.666 0.498047 42.707 0.5625 42.707 0.667969C42.707 0.855469 42.6719 1.01367 42.6016 1.14258C42.543 1.27148 42.4668 1.38281 42.373 1.47656C42.2793 1.55859 42.1797 1.62891 42.0742 1.6875C41.9805 1.74609 41.8984 1.79297 41.8281 1.82812C41.3828 2.03906 40.8613 2.37891 40.2637 2.84766C39.6777 3.31641 39.0508 3.86719 38.3828 4.5C37.7148 5.12109 37.0234 5.80664 36.3086 6.55664C35.5938 7.29492 34.8789 8.0625 34.1641 8.85938C33.4609 9.64453 32.7754 10.4297 32.1074 11.2148C31.4395 12 30.8242 12.7383 30.2617 13.4297L33.0391 13.5352L32.4414 14.5195H29.3477C28.7617 15.2109 28.1465 15.9082 27.502 16.6113C26.8691 17.3027 26.2422 17.9883 25.6211 18.668C25 19.3477 24.4082 20.0098 23.8457 20.6543C23.2832 21.2871 22.7852 21.8789 22.3516 22.4297C21.918 22.9805 21.5723 23.4785 21.3145 23.9238C21.0684 24.3691 20.9453 24.7383 20.9453 25.0312C20.9453 25.5117 21.0273 25.8281 21.1914 25.9805C21.3555 26.1211 21.6602 26.1914 22.1055 26.1914C22.5977 26.1914 23.1602 26.1152 23.793 25.9629C24.4258 25.7988 25.0703 25.5996 25.7266 25.3652C26.3945 25.1309 27.0449 24.873 27.6777 24.5918C28.3223 24.3105 28.9023 24.0469 29.418 23.8008L29.5938 24.2227C27.8125 25.0898 26.2012 25.7754 24.7598 26.2793C23.3184 26.7832 22.0938 27.0352 21.0859 27.0352C20.8047 27.0352 20.5117 27.0117 20.207 26.9648C19.9023 26.918 19.6211 26.8184 19.3633 26.666C19.1055 26.5137 18.8945 26.2969 18.7305 26.0156C18.5664 25.7344 18.4844 25.3594 18.4844 24.8906C18.4844 24.4805 18.6953 23.9355 19.1172 23.2559C19.5391 22.5762 20.1074 21.791 20.8223 20.9004C21.5488 20.0098 22.3867 19.0312 23.3359 17.9648C24.2852 16.8867 25.293 15.7383 26.3594 14.5195H23.582C22.6094 15.5273 21.6074 16.5352 20.5762 17.543C19.5449 18.5508 18.4844 19.5293 17.3945 20.4785C16.3047 21.416 15.1797 22.3008 14.0195 23.1328C12.8711 23.9531 11.6758 24.6797 10.4336 25.3125C9.77734 25.6406 9.16797 25.916 8.60547 26.1387C8.04297 26.3496 7.50391 26.5254 6.98828 26.666C6.48438 26.7949 5.99219 26.8887 5.51172 26.9473C5.04297 27.0059 4.57422 27.0352 4.10547 27.0352C3.50781 27.0352 2.99805 26.9531 2.57617 26.7891C2.16602 26.6133 1.83203 26.3965 1.57422 26.1387C1.31641 25.8691 1.12891 25.5762 1.01172 25.2598C0.894531 24.9434 0.835938 24.6328 0.835938 24.3281C0.835938 23.9648 0.900391 23.6309 1.0293 23.3262C1.1582 23.0098 1.32812 22.7402 1.53906 22.5176C1.75 22.2832 1.99023 22.1074 2.25977 21.9902C2.54102 21.8613 2.82812 21.7969 3.12109 21.7969C3.28516 21.7969 3.44922 21.8203 3.61328 21.8672C3.77734 21.9023 3.91797 21.9727 4.03516 22.0781C4.16406 22.1719 4.26367 22.3066 4.33398 22.4824C4.41602 22.6582 4.45703 22.875 4.45703 23.1328C4.45703 23.5078 4.36328 23.8125 4.17578 24.0469C4 24.2812 3.80664 24.4805 3.5957 24.6445C3.38477 24.8086 3.18555 24.9609 2.99805 25.1016C2.82227 25.2305 2.73438 25.3828 2.73438 25.5586C2.73438 25.6875 2.78711 25.7988 2.89258 25.8926C2.99805 25.9746 3.12695 26.0449 3.2793 26.1035C3.43164 26.1504 3.5957 26.1855 3.77148 26.209C3.94727 26.2207 4.10547 26.2266 4.24609 26.2266C4.80859 26.2266 5.32422 26.1973 5.79297 26.1387C6.27344 26.0684 6.73633 25.9688 7.18164 25.8398C7.63867 25.7109 8.0957 25.5527 8.55273 25.3652C9.02148 25.166 9.53125 24.9375 10.082 24.6797C10.4102 24.5273 10.8027 24.3105 11.2598 24.0293C11.7285 23.748 12.2207 23.4258 12.7363 23.0625C13.2637 22.6992 13.7969 22.3125 14.3359 21.9023C14.875 21.4922 15.3965 21.082 15.9004 20.6719C16.4043 20.2617 16.8672 19.8691 17.2891 19.4941C17.7227 19.1074 18.0859 18.7617 18.3789 18.457L22.3867 14.5195ZM24.8828 13.1836L27.4492 13.2891C27.9648 12.7031 28.4395 12.1641 28.873 11.6719C29.3184 11.1797 29.7461 10.7109 30.1562 10.2656C30.5664 9.80859 30.9707 9.36328 31.3691 8.92969C31.7793 8.48438 32.2129 8.02148 32.6699 7.54102C33.1387 7.04883 33.6426 6.5332 34.1816 5.99414C34.7207 5.44336 35.3242 4.82813 35.9922 4.14844C35.2773 4.55859 34.4863 5.06836 33.6191 5.67773C32.752 6.27539 31.8789 6.91992 31 7.61133C30.1211 8.30273 29.2715 9.00586 28.4512 9.7207C27.6426 10.4355 26.9336 11.0977 26.3242 11.707L24.8828 13.1836ZM36.0625 25.5586C36.0625 25.7578 36.0098 25.9453 35.9043 26.1211C35.7988 26.2969 35.6582 26.4492 35.4824 26.5781C35.3184 26.707 35.125 26.8125 34.9023 26.8945C34.6797 26.9648 34.457 27 34.2344 27C34.0703 27 33.9062 26.9824 33.7422 26.9473C33.5898 26.9121 33.4434 26.8477 33.3027 26.7539C33.1738 26.6602 33.0684 26.5371 32.9863 26.3848C32.9043 26.2207 32.8633 26.0156 32.8633 25.7695C32.8633 25.5586 32.9219 25.377 33.0391 25.2246C33.1562 25.0723 33.3027 24.9492 33.4785 24.8555C33.6543 24.7617 33.8535 24.6914 34.0762 24.6445C34.2988 24.5977 34.5156 24.5742 34.7266 24.5742C35.0781 24.5742 35.3711 24.6562 35.6055 24.8203C35.8516 24.9727 36.0039 25.2188 36.0625 25.5586ZM69.5664 4.14844C69.4609 4.17187 69.291 4.24219 69.0566 4.35938C68.8223 4.46484 68.5527 4.60547 68.248 4.78125C67.9551 4.95703 67.6504 5.16797 67.334 5.41406C67.0293 5.64844 66.7422 5.91211 66.4727 6.20508C66.2148 6.48633 66.0039 6.79102 65.8398 7.11914C65.6758 7.44727 65.5938 7.78125 65.5938 8.12109C65.5938 8.37891 65.6465 8.61914 65.752 8.8418C65.8691 9.05273 66.0449 9.24023 66.2793 9.4043C66.5254 9.55664 66.8359 9.67969 67.2109 9.77344C67.5859 9.86719 68.043 9.91406 68.582 9.91406C68.8516 9.91406 69.1211 9.9082 69.3906 9.89648C69.6602 9.87305 69.9297 9.83203 70.1992 9.77344V9.31641C70.1992 8.50781 70.3223 7.73438 70.5684 6.99609C70.8262 6.25781 71.166 5.57227 71.5879 4.93945C72.0098 4.30664 72.502 3.73828 73.0645 3.23438C73.6387 2.71875 74.2363 2.28516 74.8574 1.93359C75.4785 1.57031 76.1113 1.29492 76.7559 1.10742C77.4121 0.908203 78.0391 0.808594 78.6367 0.808594C79.0352 0.808594 79.3691 0.873047 79.6387 1.00195C79.9082 1.11914 80.125 1.27734 80.2891 1.47656C80.4531 1.66406 80.5703 1.88086 80.6406 2.12695C80.7109 2.36133 80.7461 2.58984 80.7461 2.8125C80.7461 3.11719 80.6934 3.48047 80.5879 3.90234C80.4941 4.32422 80.2422 4.81055 79.832 5.36133C79.4219 5.90039 78.8008 6.50391 77.9688 7.17188C77.1367 7.83984 75.9883 8.56641 74.5234 9.35156C74.1016 9.58594 73.6973 9.78516 73.3105 9.94922C72.9238 10.1016 72.5547 10.2305 72.2031 10.3359C72.2852 10.7227 72.4082 11.0684 72.5723 11.373C72.7363 11.6777 72.9004 11.9355 73.0645 12.1465C73.2637 12.3926 73.4688 12.6094 73.6797 12.7969L73.2578 13.2188C73.0234 13.0547 72.7305 12.9141 72.3789 12.7969C72.0391 12.6797 71.6055 12.6211 71.0781 12.6211L70.5859 12.6562C69.9766 12.7148 69.291 12.8965 68.5293 13.2012C67.7676 13.4941 66.9883 13.8809 66.1914 14.3613C65.4062 14.8418 64.6387 15.3926 63.8887 16.0137C63.1387 16.6348 62.4707 17.2969 61.8848 18C61.2988 18.6914 60.8242 19.4062 60.4609 20.1445C60.1094 20.8711 59.9336 21.5859 59.9336 22.2891C59.9336 22.6758 59.9629 23.0684 60.0215 23.4668C60.0918 23.8535 60.2383 24.2051 60.4609 24.5215C60.6953 24.8379 61.0352 25.0957 61.4805 25.2949C61.9375 25.4941 62.5469 25.5938 63.3086 25.5938C64.0117 25.5938 64.7148 25.4766 65.418 25.2422C66.1211 25.0078 66.7891 24.6973 67.4219 24.3105C68.0547 23.9121 68.6406 23.4609 69.1797 22.957C69.7188 22.4414 70.1875 21.9082 70.5859 21.3574C70.9844 20.8066 71.2949 20.2559 71.5176 19.7051C71.7402 19.1426 71.8516 18.6211 71.8516 18.1406C71.8516 17.7656 71.7871 17.4492 71.6582 17.1914C71.5293 16.9219 71.3594 16.7109 71.1484 16.5586C70.9375 16.3945 70.6914 16.2773 70.4102 16.207C70.1406 16.1367 69.8594 16.1016 69.5664 16.1016C68.9336 16.1016 68.2598 16.2422 67.5449 16.5234C66.8418 16.8047 66.1504 17.1973 65.4707 17.7012C64.8027 18.1934 64.1699 18.791 63.5723 19.4941C62.9746 20.1855 62.4766 20.9414 62.0781 21.7617L61.9375 21.6211C62.0781 21.2109 62.2891 20.748 62.5703 20.2324C62.8516 19.7168 63.1797 19.1953 63.5547 18.668C63.9297 18.1406 64.3457 17.6309 64.8027 17.1387C65.2715 16.6348 65.7637 16.1895 66.2793 15.8027C66.7949 15.416 67.3281 15.1055 67.8789 14.8711C68.4414 14.6367 69.0039 14.5195 69.5664 14.5195C69.9766 14.5195 70.3574 14.6133 70.709 14.8008C71.0605 14.9883 71.3594 15.2402 71.6055 15.5566C71.8633 15.8613 72.0625 16.2129 72.2031 16.6113C72.3438 17.0098 72.4141 17.4141 72.4141 17.8242C72.4141 18.5625 72.2617 19.3008 71.957 20.0391C71.6641 20.7656 71.2656 21.4629 70.7617 22.1309C70.2578 22.7988 69.666 23.4258 68.9863 24.0117C68.3184 24.5859 67.6094 25.084 66.8594 25.5059C66.1094 25.9277 65.3418 26.2617 64.5566 26.5078C63.7832 26.7422 63.0391 26.8594 62.3242 26.8594C61.75 26.8594 61.1875 26.7656 60.6367 26.5781C60.0859 26.3789 59.5879 26.0859 59.1426 25.6992C58.709 25.3008 58.3574 24.8086 58.0879 24.2227C57.8184 23.6367 57.6836 22.9453 57.6836 22.1484C57.6836 21.1875 57.8418 20.2617 58.1582 19.3711C58.4863 18.4688 58.9316 17.6309 59.4941 16.8574C60.0566 16.0723 60.7188 15.3633 61.4805 14.7305C62.2539 14.0859 63.0801 13.5352 63.959 13.0781C64.8496 12.6211 65.7695 12.2695 66.7188 12.0234C67.6797 11.7656 68.6406 11.6367 69.6016 11.6367C69.6484 11.6367 69.6953 11.6367 69.7422 11.6367C69.7891 11.6367 69.8535 11.6367 69.9355 11.6367C70.0293 11.6367 70.1523 11.6426 70.3047 11.6543C70.457 11.6543 70.6562 11.6602 70.9023 11.6719C70.832 11.543 70.7559 11.4023 70.6738 11.25C70.5918 11.0977 70.5156 10.9336 70.4453 10.7578C70 10.8281 69.584 10.8691 69.1973 10.8809C68.8105 10.8926 68.4414 10.8984 68.0898 10.8984C67.457 10.8984 66.8594 10.8574 66.2969 10.7754C65.7461 10.6934 65.2598 10.5586 64.8379 10.3711C64.416 10.1836 64.082 9.94336 63.8359 9.65039C63.6016 9.3457 63.4844 8.97656 63.4844 8.54297C63.4844 8.10938 63.6074 7.70508 63.8535 7.33008C64.0996 6.94336 64.4102 6.5918 64.7852 6.27539C65.1719 5.95898 65.5938 5.67188 66.0508 5.41406C66.5195 5.14453 66.9707 4.91602 67.4043 4.72852C67.8379 4.54102 68.2246 4.38867 68.5645 4.27148C68.916 4.14258 69.168 4.05469 69.3203 4.00781C69.3203 4.00781 69.3555 3.99609 69.4258 3.97266H69.4609L69.5664 4.14844ZM74.1719 5.02734C73.9141 5.32031 73.668 5.63086 73.4336 5.95898C73.1992 6.28711 72.9883 6.63281 72.8008 6.99609C72.6133 7.35938 72.4551 7.74023 72.3262 8.13867C72.209 8.52539 72.1445 8.92969 72.1328 9.35156C73.1289 9.03516 74.0723 8.625 74.9629 8.12109C75.8535 7.61719 76.6328 7.07812 77.3008 6.50391C77.9805 5.91797 78.5195 5.32617 78.918 4.72852C79.3164 4.13086 79.5156 3.57422 79.5156 3.05859C79.5156 2.77734 79.4219 2.56641 79.2344 2.42578C79.0469 2.28516 78.8125 2.21484 78.5312 2.21484C78.2617 2.21484 77.9453 2.29102 77.582 2.44336C77.2305 2.58398 76.8555 2.7832 76.457 3.04102C76.0703 3.29883 75.6777 3.59766 75.2793 3.9375C74.8809 4.27734 74.5117 4.64062 74.1719 5.02734ZM80.1133 25.5586C80.1133 25.7578 80.0605 25.9453 79.9551 26.1211C79.8496 26.2969 79.709 26.4492 79.5332 26.5781C79.3691 26.707 79.1758 26.8125 78.9531 26.8945C78.7305 26.9648 78.5078 27 78.2852 27C78.1211 27 77.957 26.9824 77.793 26.9473C77.6406 26.9121 77.4941 26.8477 77.3535 26.7539C77.2246 26.6602 77.1191 26.5371 77.0371 26.3848C76.9551 26.2207 76.9141 26.0156 76.9141 25.7695C76.9141 25.5586 76.9727 25.377 77.0898 25.2246C77.207 25.0723 77.3535 24.9492 77.5293 24.8555C77.7051 24.7617 77.9043 24.6914 78.127 24.6445C78.3496 24.5977 78.5664 24.5742 78.7773 24.5742C79.1289 24.5742 79.4219 24.6562 79.6562 24.8203C79.9023 24.9727 80.0547 25.2188 80.1133 25.5586Z" fill="white"/>
</svg>
